<?xml version="1.0" encoding="UTF-8" standalone="no"?>
<!-- Created with Inkscape (http://www.inkscape.org/) -->

<svg
   width="99.065285mm"
   height="90.182114mm"
   viewBox="0 0 99.065285 90.182114"
   version="1.1"
   id="svg5"
   xml:space="preserve"
   xmlns:xlink="http://www.w3.org/1999/xlink"
   xmlns="http://www.w3.org/2000/svg"
   xmlns:svg="http://www.w3.org/2000/svg"><defs
     id="defs2"><linearGradient
       id="linearGradient9344"><stop
         style="stop-color:#000000;stop-opacity:1;"
         offset="0"
         id="stop9340" /><stop
         style="stop-color:#000000;stop-opacity:0;"
         offset="1"
         id="stop9342" /></linearGradient><linearGradient
       id="linearGradient31060"><stop
         style="stop-color:#56abb8;stop-opacity:1;"
         offset="0"
         id="stop31056" /><stop
         style="stop-color:#52a9bc;stop-opacity:1;"
         offset="0.37942123"
         id="stop33934" /><stop
         style="stop-color:#275099;stop-opacity:1;"
         offset="1"
         id="stop31058" /></linearGradient><linearGradient
       id="linearGradient26871"><stop
         style="stop-color:#56abb8;stop-opacity:1;"
         offset="0"
         id="stop26867" /><stop
         style="stop-color:#29549a;stop-opacity:1;"
         offset="0.87781352"
         id="stop26869" /></linearGradient><linearGradient
       xlink:href="#linearGradient26871"
       id="linearGradient2148"
       gradientUnits="userSpaceOnUse"
       gradientTransform="rotate(1.2840443,-1151.3849,2044.1735)"
       x1="57.139503"
       y1="166.0894"
       x2="93.569206"
       y2="161.04532" /><linearGradient
       xlink:href="#linearGradient31060"
       id="linearGradient2150"
       gradientUnits="userSpaceOnUse"
       gradientTransform="rotate(1.2840443,-1151.3849,2044.1735)"
       x1="101.19586"
       y1="144.62535"
       x2="93.106262"
       y2="194.96526" /></defs><g
     id="layer1"
     transform="translate(-91.41305,-176.62159)"><g
       id="g10835"><path
         style="opacity:1;fill:#ffffff;fill-opacity:1;stroke:none;stroke-width:0.765;stroke-linejoin:miter;stroke-miterlimit:4;stroke-dasharray:3.06001, 0.765;stroke-dashoffset:0;stroke-opacity:1;paint-order:markers stroke fill"
         d="m 96.217566,182.52168 c 0,0 17.806644,-4.8838 54.290574,2.61385 22.75149,4.67556 33.51178,-2.87697 33.51178,-2.87697 0.69828,7.6764 -2.90737,26.58878 -34.24613,35.50899 -9.91572,15.80747 -16.08685,28.95956 -15.96276,49.03617 -22.79358,-9.67238 -20.85203,-26.31915 -7.88472,-59.20514 -4.95108,-1.12095 -21.34878,1.43133 -29.708744,-25.0769 z"
         id="path9910" /><path
         d="m 112.92153,239.76187 m 2.42191,3.37532"
         style="fill:#56abb8;fill-opacity:1;stroke:none;stroke-width:0.264583;stroke-opacity:1"
         id="path14769-0-8" /><path
         style="fill:url(#linearGradient2148);fill-opacity:1;stroke:none;stroke-width:0.264583;stroke-opacity:1"
         d="m 99.137329,184.03045 c 10.561781,23.60982 20.254481,19.74389 33.804651,21.05405 l -6.62722,-18.9698 c -5.13148,-2.26404 -17.18567,-2.52695 -27.177431,-2.08425 z"
         id="path14753-6-4-1" /><path
         style="fill:#234990;fill-opacity:1;stroke:none;stroke-width:0.765;stroke-linejoin:miter;stroke-miterlimit:4.1;stroke-dasharray:none;stroke-opacity:1;paint-order:markers stroke fill"
         d="m 181.97652,186.13741 c -1.3032,4.8426 -8.46022,22.96295 -31.97448,28.36654 7.88522,-13.22034 6.51343,-24.11782 -10.87096,-29.13109 10.86129,2.28587 18.20431,4.85649 27.31465,5.15617 6.54535,0.20086 11.38373,-1.44061 15.53079,-4.39162 z"
         id="path9849" /><path
         style="fill:#0e195f;fill-opacity:1;stroke:none;stroke-width:0.264583;stroke-opacity:1"
         d="m 120.89269,231.99999 c 0.87469,-1.28147 12.1528,-2.31511 24.96089,-13.16145 -7.21496,13.41679 -14.44015,23.93061 -14.2799,44.60726 -10.82193,-5.42924 -12.81122,-16.66163 -12.91558,-20.04586 -0.10438,-3.38423 1.3599,-10.1185 2.23459,-11.39995 z"
         id="path9852" /><path
         style="fill:url(#linearGradient2150);fill-opacity:1;stroke:none;stroke-width:0.264583;stroke-opacity:1"
         d="m 99.390989,184.00831 c 7.034991,0.10737 42.072751,-4.21884 49.244531,12.23583 4.45142,13.50538 -9.34681,25.48734 -27.20393,31.19337 5.03892,-17.16654 22.97777,-39.04857 -22.040601,-43.4292 z"
         id="path14759-5-9-1" /><rect
         style="opacity:0.801587;fill:#c2be35;fill-opacity:0;stroke:none;stroke-width:4.99999;stroke-dasharray:none;stroke-opacity:1"
         id="rect3372"
         width="99.065277"
         height="89.965332"
         x="91.413048"
         y="176.6216" /></g></g></svg>
